HIERARCHY
ROOT Hips
{
	OFFSET -0.001795 -0.223333 0.028219
	CHANNELS 6 Xposition Yposition Zposition Zrotation Yrotation Xrotation 
	JOINT LeftUpLeg
	{
		OFFSET 0.069520 -0.091406 -0.006815
		CHANNELS 3 Zrotation Yrotation Xrotation
		JOINT LeftLeg
		{
			OFFSET 0.034277 -0.375199 -0.004496
			CHANNELS 3 Zrotation Yrotation Xrotation
			JOINT LeftFoot
			{
				OFFSET -0.013596 -0.397961 -0.043693
				CHANNELS 3 Zrotation Yrotation Xrotation
				JOINT LeftToe
				{
					OFFSET 0.026358 -0.055791 0.119288
					CHANNELS 3 Zrotation Yrotation Xrotation
					End Site
					{
						OFFSET 0.000000 0.000000 0.000000
					}
				}
			}
		}
	}
	JOINT RightUpLeg
	{
		OFFSET -0.067670 -0.090522 -0.004320
		CHANNELS 3 Zrotation Yrotation Xrotation
		JOINT RightLeg
		{
			OFFSET -0.038290 -0.382569 -0.008850
			CHANNELS 3 Zrotation Yrotation Xrotation
			JOINT RightFoot
			{
				OFFSET 0.015774 -0.398415 -0.042312
				CHANNELS 3 Zrotation Yrotation Xrotation
				JOINT RightToe
				{
					OFFSET -0.025372 -0.048144 0.123348
					CHANNELS 3 Zrotation Yrotation Xrotation
					End Site
					{
						OFFSET 0.000000 0.000000 0.000000
					}
				}
			}
		}
	}
	JOINT Spine
	{
		OFFSET -0.002533 0.108963 -0.026696
		CHANNELS 3 Zrotation Yrotation Xrotation
		JOINT Spine1
		{
			OFFSET 0.005487 0.135180 0.001092
			CHANNELS 3 Zrotation Yrotation Xrotation
			JOINT Spine2
			{
				OFFSET 0.001457 0.052922 0.025425
				CHANNELS 3 Zrotation Yrotation Xrotation
				JOINT Neck
				{
					OFFSET -0.002778 0.213870 -0.042857
					CHANNELS 3 Zrotation Yrotation Xrotation
					JOINT Head
					{
						OFFSET 0.005152 0.064970 0.051349
						CHANNELS 3 Zrotation Yrotation Xrotation
						End Site
						{
							OFFSET 0.000000 0.000000 0.000000
						}
					}
				}
				JOINT LeftShoulder
				{
					OFFSET 0.078845 0.121749 -0.034090
					CHANNELS 3 Zrotation Yrotation Xrotation
					JOINT LeftArm
					{
						OFFSET 0.090977 0.030469 -0.008868
						CHANNELS 3 Zrotation Yrotation Xrotation
						JOINT LeftForeArm
						{
							OFFSET 0.259612 -0.012772 -0.027456
							CHANNELS 3 Zrotation Yrotation Xrotation
							JOINT LeftHand
							{
								OFFSET 0.249234 0.008986 -0.001171
								CHANNELS 3 Zrotation Yrotation Xrotation
								End Site
								{
									OFFSET 0.000000 0.000000 0.000000
								}
							}
						}
					}
				}
				JOINT RightShoulder
				{
					OFFSET -0.081759 0.118833 -0.038615
					CHANNELS 3 Zrotation Yrotation Xrotation
					JOINT RightArm
					{
						OFFSET -0.096012 0.032551 -0.009143
						CHANNELS 3 Zrotation Yrotation Xrotation
						JOINT RightForeArm
						{
							OFFSET -0.253742 -0.013329 -0.021401
							CHANNELS 3 Zrotation Yrotation Xrotation
							JOINT RightHand
							{
								OFFSET -0.255298 0.007772 -0.005559
								CHANNELS 3 Zrotation Yrotation Xrotation
								End Site
								{
									OFFSET 0.000000 0.000000 0.000000
								}
							}
						}
					}
				}
			}
		}
	}
}
MOTION
Frames: 10
Frame Time: 0.050000
0.822946 0.940533 -0.481784 -7.345987 30.995421 -1.604078 -2.093347 0.388913 17.113067 3.513942 -0.134147 -1.814029 -1.793844 -2.875929 0.779219 0.000000 0.000000 0.000000 12.185466 3.385145 -25.958408 3.016620 -2.732286 25.072292 -3.526852 -8.302048 4.500434 0.000000 0.000000 0.000000 5.634850 -0.998068 7.864157 7.886187 -2.938226 -5.237989 -5.632623 -10.278578 12.108494 6.223296 -1.702413 -17.933683 0.000000 0.000000 0.000000 -21.422175 -10.885197 1.819468 -34.895489 -12.069691 -0.640769 -17.036997 -65.579379 12.070003 0.000000 0.000000 0.000000 15.761713 -7.851998 -3.921686 47.402801 -13.865448 -10.152292 6.623179 47.837238 6.126490 0.000000 0.000000 0.000000 
0.869749 0.936516 -0.461293 -7.785977 33.092254 -1.150709 -3.849942 0.546610 18.969535 2.741001 -0.113622 -1.258672 -0.642653 -0.033062 1.741789 0.000000 0.000000 0.000000 15.960044 3.775323 -25.055294 2.457931 -1.622110 17.943332 -4.051341 -8.854143 8.615112 0.000000 0.000000 0.000000 5.726697 -0.909793 6.908567 8.797367 -3.597981 -4.010064 -5.572259 -11.663796 9.122127 5.499079 -1.720745 -14.807181 0.000000 0.000000 0.000000 -20.901033 -9.946669 1.400101 -35.053288 -9.697621 -1.108532 -13.978836 -65.511423 10.073649 0.000000 0.000000 0.000000 15.562526 -7.908949 -4.099026 45.836342 -13.337047 -9.380268 5.077175 47.211468 5.202038 0.000000 0.000000 0.000000 
0.923596 0.932852 -0.436656 -7.969930 34.757055 -1.618738 -4.506651 0.435501 21.365344 1.658356 -0.169843 1.138103 -5.546706 -4.196437 6.975658 0.000000 0.000000 0.000000 17.957045 3.697443 -22.522484 1.196405 -1.137960 16.455305 -4.208958 -8.845496 10.275938 0.000000 0.000000 0.000000 6.767977 -0.813088 5.380711 8.547848 -3.565509 -3.515136 -4.851437 -13.304678 7.773800 2.877662 -0.378418 -12.795531 0.000000 0.000000 0.000000 -20.704613 -6.395247 -0.275293 -36.558566 -7.677290 -1.756522 -24.954208 -64.924116 17.173866 0.000000 0.000000 0.000000 14.186258 -6.645285 -3.487228 43.806609 -10.896409 -8.117671 3.882768 46.179741 4.451811 0.000000 0.000000 0.000000 
0.980172 0.930039 -0.413909 -7.069846 34.594224 -2.536603 -2.281190 0.108016 18.904615 -5.231309 -0.203649 12.356596 -10.047675 -8.741846 10.901769 0.000000 0.000000 0.000000 16.892777 3.216085 -18.525712 -0.278182 -0.967870 18.835207 -3.848630 -8.772511 5.928272 0.000000 0.000000 0.000000 7.598256 -0.708766 4.213336 8.340459 -4.122968 -0.608730 -4.687932 -10.477182 5.474650 3.418506 -0.607476 -12.065645 0.000000 0.000000 0.000000 -21.263930 -7.077048 -0.683281 -35.232662 -5.554771 -1.880817 -27.125569 -61.977928 17.018882 0.000000 0.000000 0.000000 15.080766 -6.298720 -3.051047 41.822973 -8.604113 -7.017254 1.287806 47.447971 3.807097 0.000000 0.000000 0.000000 
1.033231 0.928973 -0.397489 -7.023009 34.452455 -4.533429 3.764808 -0.617085 11.424035 -16.550610 0.477240 30.738862 -4.444507 -1.114098 9.733144 0.000000 0.000000 0.000000 15.648256 2.648447 -14.203079 -1.525198 -0.752226 20.115089 -3.558720 -8.586971 3.783791 0.000000 0.000000 0.000000 8.867886 -1.060471 6.171849 7.390147 -3.841517 0.346971 -4.083440 -7.628785 4.065895 4.920915 -1.790663 -9.777099 0.000000 0.000000 0.000000 -22.877412 -6.690407 -1.963116 -34.562251 -3.881769 -1.928202 -30.370755 -59.512489 17.625306 0.000000 0.000000 0.000000 17.260428 -3.455630 -1.098106 38.894448 -5.583052 -5.900494 -1.471067 48.323351 2.954729 0.000000 0.000000 0.000000 
1.081631 0.929956 -0.386058 -5.785810 34.087262 -5.406529 9.864056 -1.070338 2.445818 -26.404270 2.835756 44.190259 3.832577 10.545669 7.745379 0.000000 0.000000 0.000000 11.501319 1.818849 -9.621715 -0.759439 -1.039016 20.193485 -2.398263 -6.301737 1.180493 0.000000 0.000000 0.000000 8.055035 -1.083308 7.199991 6.202524 -3.207955 0.368295 -2.430385 -4.464770 5.717824 5.402426 -1.831831 -10.341616 0.000000 0.000000 0.000000 -23.510350 -8.431916 -1.974230 -35.257675 -2.851755 -2.079520 -25.783744 -55.213944 13.252729 0.000000 0.000000 0.000000 19.452338 -1.625340 0.730222 37.067931 -0.047278 -4.705856 -6.239778 49.641583 1.343916 0.000000 0.000000 0.000000 
1.128840 0.934019 -0.375993 -3.870556 32.468598 -5.386678 14.128922 -1.196090 -5.735868 -28.992651 4.264269 48.319577 9.670535 19.695891 7.200190 0.000000 0.000000 0.000000 7.536011 1.109982 -5.999015 -0.899117 -0.812355 19.626126 -0.953446 -2.744574 0.296151 0.000000 0.000000 0.000000 6.751949 -1.122857 8.621931 4.921742 -2.726416 1.342294 -1.687711 -0.491874 5.168316 6.272697 -2.569197 -8.864694 0.000000 0.000000 0.000000 -24.097442 -8.323998 -3.163850 -34.474656 0.990462 -2.695336 -25.684113 -52.395339 12.038324 0.000000 0.000000 0.000000 19.821180 -0.932608 1.852156 36.701526 4.418021 -3.727802 -7.787714 52.681254 1.239636 0.000000 0.000000 0.000000 
1.178111 0.937590 -0.367177 -1.763479 30.248172 -4.965463 16.647424 -1.138051 -11.824642 -25.408190 3.518643 45.758587 12.004928 23.626607 8.819116 0.000000 0.000000 0.000000 2.544320 0.365170 -2.407085 -0.153192 -0.744501 18.268378 0.373212 0.732807 -0.358812 0.000000 0.000000 0.000000 5.279931 -0.996604 9.004643 3.516775 -2.128722 2.206979 -0.704155 2.060434 5.723898 5.862920 -2.053765 -9.504617 0.000000 0.000000 0.000000 -25.201723 -7.150008 -4.444566 -33.903159 2.728598 -2.999655 -23.715316 -48.202212 10.090992 0.000000 0.000000 0.000000 20.028126 1.645537 3.693538 35.786767 8.201776 -2.824351 -10.547834 56.406776 0.046789 0.000000 0.000000 0.000000 
1.229855 0.937389 -0.358541 -0.772324 27.923669 -4.158787 19.559302 -1.106087 -13.147599 -17.463093 1.520402 33.829499 11.003669 22.129125 8.032008 0.000000 0.000000 0.000000 -1.312873 -0.115725 0.098146 -0.551242 -0.365783 17.313897 1.857335 5.080947 -2.060853 0.000000 0.000000 0.000000 4.959592 -0.902738 8.597086 2.391242 -1.527444 2.291813 -0.413601 4.917585 6.694444 6.552074 -2.202835 -10.333857 0.000000 0.000000 0.000000 -24.523644 -6.326889 -5.277819 -34.295800 5.129129 -3.635120 -23.335989 -45.979190 9.188544 0.000000 0.000000 0.000000 19.134462 2.122015 4.277174 37.074041 10.707411 -2.259155 -8.330412 59.915025 1.851009 0.000000 0.000000 0.000000 
1.284263 0.931485 -0.349371 -0.613753 25.164692 -3.950230 22.654966 -1.125256 -11.623932 -9.217532 0.413706 18.436139 6.784817 16.655670 10.948295 0.000000 0.000000 0.000000 -5.371093 -0.440057 1.795596 -0.853837 -0.110204 17.506996 2.431393 7.178276 -3.066078 0.000000 0.000000 0.000000 5.189391 -0.842479 8.078420 0.865616 -0.826969 3.105441 -0.010540 8.221454 6.872679 6.797150 -2.235134 -10.294771 0.000000 0.000000 0.000000 -24.378414 -4.935145 -6.514899 -33.800014 5.932836 -3.730469 -23.422237 -44.517680 8.775904 0.000000 0.000000 0.000000 19.448630 1.603390 4.419239 37.205536 12.647002 -1.779365 -6.451006 61.424399 3.318609 0.000000 0.000000 0.000000 
